Pathfinders.In.the.Company.of.Strangers 2011 DVDRIP Xvid-THC


File size                        : 715 MiB
Duration                         : 1h 31mn
Overall bit rate                 : 1 090 Kbps

Video
Codec ID                         : XVID
Codec ID/Hint                    : XviD
Duration                         : 1h 31mn
Bit rate                         : 956 Kbps
Width                            : 720 pixels
Height                           : 304 pixels
Display aspect ratio             : 2.35:1
Frame rate                       : 25.000 fps
Color space                      : YUV
Chroma subsampling               : 4:2:0
Bit depth                        : 8 bits
Scan type                        : Progressive
Compression mode                 : Lossy
Bits/(Pixel*Frame)               : 0.175
Stream size                      : 627 MiB (88%)
Writing library                  : XviD 1.2.1 (UTC 2008-12-04)

Audio
Codec ID                         : 55
Codec ID/Hint                    : MP3
Duration                         : 1h 31mn
Bit rate mode                    : Constant
Bit rate                         : 128 Kbps
Channel(s)                       : 2 channels
Sampling rate                    : 48.0 KHz
Compression mode                 : Lossy
Stream size                      : 84.0 MiB (12%)
Alignment                        : Aligned on interleaves
Interleave, duration             : 160 ms (4.00 video frames)
Interleave, preload duration     : 216 ms
Title                            : VTS_01_1 T80 2_0ch 192Kbps DELAY 0ms
Writing library                  : LAME3.98r



IMDB:http://www.imdb.com/title/tt1260680/


Screens:

 
http://leetleech.org/images/44376774825123613074.png
 
http://leetleech.org/images/21942142150897237790.png
 
http://leetleech.org/images/20992523780456340353.png


ENJOY!